<?xml version="1.0" encoding="utf-8"?>
<!-- Generator: Adobe Illustrator 19.0.0, SVG Export Plug-In . SVG Version: 6.00 Build 0)  -->
<svg version="1.0" id="Camada_1" xmlns="http://www.w3.org/2000/svg" xmlns:xlink="http://www.w3.org/1999/xlink" x="0px" y="0px"
	 viewBox="0 0 17.5 19" style="enable-background:new 0 0 17.5 19;" xml:space="preserve">
<style type="text/css">
	.st0{fill-rule:evenodd;clip-rule:evenodd;fill:#FEFEFE;}
</style>
<path class="st0" d="M11.4,19c-0.8-1.6-1.2-3.2-1.3-5.1c-0.1-1.4,0.1-2.6,1-3.5c0.8,1.2,2.3,1.7,4.3,1.6c0.1-0.8,0.1-1.6-0.5-2.4
	c0.9-0.1,1.7-0.6,2.6-1.4c-0.4-0.9-1.1-1.6-2.5-1.7c0.9-1,1.1-2.3,0.9-3.8c-1.7-0.2-3.6,0.9-3.4,2.9c-0.1-0.5-0.3-0.8-0.6-1
	c0.3-1.1,0.1-2.5-0.3-3.6C10.2,1,9.7,1.4,8.9,2.4C8.9,1.9,8.6,1.2,8.1,0.7C7.3,1,6.8,1.7,6.6,2.2C6.2,1.1,5.3,0.4,4.2,0
	C3.1,1,3.1,2.2,3.5,3.7c-1-0.1-2.1-0.3-3.2,0.1C0.5,4.8,1.2,5.9,2,6.6c-0.7,0.1-1.3,0.2-2,1C0.3,8.4,1,9,2,9.3
	c-0.8,0.7-1.3,1.5-1.4,2.4c2,0.7,4.6,0.2,5.5-1.4c1,1.2,1.1,2.5,1,3.7l0,0l0,0c-0.1,1.7-0.5,3.4-1.4,5 M4.3,1.3
	C3.8,2.6,4.2,3.8,5.4,4.9C6,3.3,5.8,2.1,4.3,1.3L4.3,1.3L4.3,1.3z M14.9,3.2c0.2,1.4-0.5,2.5-1.9,3.5C12.7,5.2,13.2,4,14.9,3.2
	L14.9,3.2L14.9,3.2z M10.7,1.9c0.5,1.4,0.1,2.6-1.1,3.6C9,4,9.1,2.7,10.7,1.9L10.7,1.9L10.7,1.9z M7.2,6.1c-0.7-1.4-0.5-3,0.7-4
	C8.6,3.4,8.8,5.3,7.2,6.1L7.2,6.1L7.2,6.1z M5.5,7c-0.8-2-2-2.7-3.7-2.4C2.4,6.4,3.8,6.9,5.5,7L5.5,7L5.5,7z M4.6,8.2
	c-0.9-1-2-1.1-3.3-0.5C2.2,8.9,3.3,9.1,4.6,8.2L4.6,8.2L4.6,8.2z M2.2,11c0.4-1.4,1.3-2.2,3.2-1.6C4.8,10.7,3.9,11.4,2.2,11L2.2,11
	L2.2,11z M8.6,6.4C7,6.6,6.2,7.5,6,8.9C7.8,8.6,8.7,7.7,8.6,6.4L8.6,6.4L8.6,6.4z M9.8,7.5c-1,0.6-1.3,1.8-0.9,3.3
	C10.4,10,10.6,8.9,9.8,7.5L9.8,7.5L9.8,7.5z M11.2,8.6c-1-1.5-1.1-2.7,0.3-3.6C12.5,6.2,12.2,7.3,11.2,8.6L11.2,8.6L11.2,8.6z
	 M12.5,8.2c1.1-1.3,2.3-1.4,3.7-0.5C15.3,8.8,14.1,9,12.5,8.2L12.5,8.2L12.5,8.2z M11.7,9.5c1.3-0.6,2.6,0.1,2.9,1.6
	C13.1,11.3,12.1,10.8,11.7,9.5L11.7,9.5L11.7,9.5z"/>
</svg>
